<?xml version="1.0" standalone="no"?>
<!DOCTYPE svg PUBLIC "-//W3C//DTD SVG 20010904//EN"
 "http://www.w3.org/TR/2001/REC-SVG-20010904/DTD/svg10.dtd">
<svg version="1.0" xmlns="http://www.w3.org/2000/svg"
 width="512.000000pt" height="512.000000pt" viewBox="0 0 512.000000 512.000000"
 preserveAspectRatio="xMidYMid meet">
<metadata>
Created by potrace 1.11, written by Peter Selinger 2001-2013
</metadata>
<g transform="translate(0.000000,512.000000) scale(0.100000,-0.100000)"
fill="#000000" stroke="none">
<path d="M0 2560 l0 -2560 2560 0 2560 0 0 2560 0 2560 -2560 0 -2560 0 0
-2560z m2575 1420 c401 -27 685 -110 923 -270 280 -187 436 -484 483 -918 17
-163 7 -483 -21 -642 -101 -576 -417 -903 -1016 -1054 -264 -67 -406 -76
-1211 -76 l-683 0 0 120 0 120 135 0 135 0 0 1240 0 1239 -132 3 -133 3 -3
109 c-1 61 0 116 2 123 4 11 133 13 688 13 376 0 751 -5 833 -10z"/>
<path d="M2262 2504 l3 -1239 97 2 c170 3 287 46 391 143 109 102 168 232 207
453 31 176 40 328 40 672 0 506 -30 731 -126 932 -87 182 -224 257 -492 270
l-122 6 2 -1239z"/>
</g>
</svg>
