<svg width="30" height="30" viewBox="0 0 30 30" fill="none" xmlns="http://www.w3.org/2000/svg">
<rect width="30" height="30" fill="#202020"/>
<path d="M23.0774 15.312C23.0774 18.608 22.1494 20.904 20.2934 22.2C18.5814 23.4 16.2294 24 13.2374 24H6.44541V23.544H8.02941V7.656H6.44541V7.2H13.8614C16.9334 7.2 19.2374 7.832 20.7734 9.096C22.3094 10.344 23.0774 12.416 23.0774 15.312ZM12.7094 23.544H13.6214C15.2374 23.544 16.3894 22.976 17.0774 21.84C17.7814 20.688 18.1334 18.768 18.1334 16.08V14.688C18.1334 11.088 17.4454 8.92 16.0694 8.184C15.4134 7.832 14.4854 7.656 13.2854 7.656H12.7094V23.544Z" fill="white"/>
</svg>
